<?xml version="1.0" standalone="no"?>
<!DOCTYPE svg PUBLIC "-//W3C//DTD SVG 20010904//EN"
 "http://www.w3.org/TR/2001/REC-SVG-20010904/DTD/svg10.dtd">
<svg version="1.0" xmlns="http://www.w3.org/2000/svg"
 width="512.000000pt" height="512.000000pt" viewBox="0 0 512.000000 512.000000"
 preserveAspectRatio="xMidYMid meet">
<metadata>
Created by potrace 1.16, written by Peter Selinger 2001-2019
</metadata>
<g transform="translate(0.000000,512.000000) scale(0.100000,-0.100000)"
fill="#000000" stroke="none">
<path d="M2155 4229 c-211 -35 -402 -215 -446 -420 -17 -76 -30 -86 -126 -97
-153 -18 -255 -89 -320 -220 l-38 -76 -3 -495 c-4 -520 -1 -564 40 -646 11
-22 22 -41 23 -43 2 -2 18 4 37 14 23 12 65 19 141 22 l107 5 0 233 c0 140 4
244 11 261 17 45 48 71 144 121 114 60 252 192 304 292 39 75 58 100 78 100 8
0 67 -35 132 -78 325 -218 652 -345 1048 -407 167 -26 200 -39 235 -87 22 -32
23 -42 26 -235 l3 -203 77 0 c69 0 146 -14 193 -34 18 -8 52 59 69 134 5 26
10 232 10 476 0 352 -3 448 -16 525 -37 213 -129 393 -282 551 -167 172 -380
278 -622 308 -99 12 -752 12 -825 -1z"/>
<path d="M30 2619 c-34 -29 -35 -93 -1 -120 23 -18 44 -19 417 -19 244 1 394
5 394 10 0 6 5 9 12 8 15 -4 38 40 38 73 0 14 -9 34 -21 45 -20 18 -44 19
-418 21 -388 3 -396 2 -421 -18z"/>
<path d="M4256 2616 c-31 -30 -33 -87 -4 -113 19 -17 50 -18 412 -21 299 -2
397 1 415 10 13 7 23 17 22 22 -2 5 3 12 9 16 19 12 3 77 -23 95 -18 13 -78
15 -415 15 l-393 0 -23 -24z"/>
<path d="M2051 2354 c-18 -23 -21 -41 -21 -131 0 -97 2 -106 25 -128 13 -14
36 -25 50 -25 14 0 37 11 50 25 23 22 25 31 25 128 0 90 -3 108 -21 131 -15
19 -30 26 -54 26 -24 0 -39 -7 -54 -26z"/>
<path d="M2961 2354 c-18 -23 -21 -41 -21 -131 0 -97 2 -106 25 -128 13 -14
36 -25 50 -25 14 0 37 11 50 25 23 22 25 31 25 128 0 90 -3 108 -21 131 -15
19 -30 26 -54 26 -24 0 -39 -7 -54 -26z"/>
</g>
</svg>
